<mxfile host="app.diagrams.net" modified="2024-01-15T10:00:00.000Z" agent="5.0" etag="abc123" version="22.1.16">
  <diagram name="AI智能系统综合架构" id="comprehensive-ai-architecture">
    <mxGraphModel dx="2074" dy="1196" grid="1" gridSize="10" guides="1" tooltips="1" connect="1" arrows="1" fold="1" page="1" pageScale="1" pageWidth="1654" pageHeight="1169" math="0" shadow="0">
      <root>
        <mxCell id="0" />
        <mxCell id="1" parent="0" />
        
        <!-- 标题 -->
        <mxCell id="title" value="AI智能系统：从Transformer到未来突破" style="text;html=1;strokeColor=none;fillColor=none;align=center;verticalAlign=middle;whiteSpace=wrap;rounded=0;fontSize=24;fontStyle=1;fontColor=#1f4e79;" vertex="1" parent="1">
          <mxGeometry x="527" y="20" width="600" height="40" as="geometry" />
        </mxCell>
        
        <!-- Transformer架构核心 -->
        <mxCell id="transformer-core" value="🔍 Transformer核心架构" style="rounded=1;whiteSpace=wrap;html=1;fillColor=#e1f5fe;strokeColor=#01579b;strokeWidth=2;fontSize=16;fontStyle=1;" vertex="1" parent="1">
          <mxGeometry x="100" y="100" width="500" height="50" as="geometry" />
        </mxCell>
        
        <!-- 输入层 -->
        <mxCell id="input-layer" value="📝 输入层\n• 分词(Tokenization)\n• 词嵌入(Word Embedding)\n• 位置编码(Positional Encoding)" style="rounded=1;whiteSpace=wrap;html=1;fillColor=#e8f5e8;strokeColor=#4caf50;fontSize=12;align=left;" vertex="1" parent="1">
          <mxGeometry x="50" y="200" width="200" height="120" as="geometry" />
        </mxCell>
        
        <!-- 注意力机制 -->
        <mxCell id="attention" value="🎯 自注意力机制\n• Q = X × Wq (查询矩阵)\n• K = X × Wk (键矩阵)\n• V = X × Wv (值矩阵)\n• Attention = Softmax(QK^T/√dk)V\n• 捕捉序列内部依赖关系" style="rounded=1;whiteSpace=wrap;html=1;fillColor=#fff3e0;strokeColor=#f57c00;fontSize=12;align=left;" vertex="1" parent="1">
          <mxGeometry x="300" y="200" width="250" height="120" as="geometry" />
        </mxCell>
        
        <!-- 多头注意力 -->
        <mxCell id="multihead" value="🧠 多头注意力\n• 8个并行注意力头\n• 每个头关注不同语义\n• head_i = Attention(QWq_i, KWk_i, VWv_i)\n• MultiHead = Concat(head1,...,head8)Wo\n• 增强模型表达能力" style="rounded=1;whiteSpace=wrap;html=1;fillColor=#f3e5f5;strokeColor=#7b1fa2;fontSize=12;align=left;" vertex="1" parent="1">
          <mxGeometry x="600" y="200" width="280" height="120" as="geometry" />
        </mxCell>
        
        <!-- 前馈网络 -->
        <mxCell id="ffn" value="⚙️ 前馈神经网络\n• FFN(x) = max(0, xW1 + b1)W2 + b2\n• 维度变化: 512→2048→512\n• ReLU激活函数\n• 位置无关的非线性变换\n• 增加模型非线性表达能力" style="rounded=1;whiteSpace=wrap;html=1;fillColor=#e8f5e8;strokeColor=#4caf50;fontSize=12;align=left;" vertex="1" parent="1">
          <mxGeometry x="920" y="200" width="250" height="120" as="geometry" />
        </mxCell>
        
        <!-- 残差连接和层归一化 -->
        <mxCell id="residual-norm" value="🔄 残差连接 & 层归一化\n• 残差连接: output = F(x) + x\n• 层归一化: LayerNorm(x + Sublayer(x))\n• 解决梯度消失问题\n• 加速训练收敛\n• 稳定训练过程" style="rounded=1;whiteSpace=wrap;html=1;fillColor=#fff8e1;strokeColor=#ff8f00;fontSize=12;align=left;" vertex="1" parent="1">
          <mxGeometry x="50" y="370" width="280" height="120" as="geometry" />
        </mxCell>
        
        <!-- 编码器-解码器架构 -->
        <mxCell id="encoder-decoder" value="🏗️ 编码器-解码器架构\n• 编码器: 6层堆叠\n• 解码器: 6层堆叠\n• 交叉注意力机制\n• 掩码机制防止信息泄露\n• 支持序列到序列任务" style="rounded=1;whiteSpace=wrap;html=1;fillColor=#e1f5fe;strokeColor=#01579b;fontSize=12;align=left;" vertex="1" parent="1">
          <mxGeometry x="380" y="370" width="280" height="120" as="geometry" />
        </mxCell>
        
        <!-- 位置编码详解 -->
        <mxCell id="positional-encoding" value="📍 位置编码详解\n• PE(pos,2i) = sin(pos/10000^(2i/dmodel))\n• PE(pos,2i+1) = cos(pos/10000^(2i/dmodel))\n• 为序列添加位置信息\n• 支持任意长度序列\n• 相对位置关系建模" style="rounded=1;whiteSpace=wrap;html=1;fillColor=#f1f8e9;strokeColor=#689f38;fontSize=12;align=left;" vertex="1" parent="1">
          <mxGeometry x="710" y="370" width="280" height="120" as="geometry" />
        </mxCell>
        
        <!-- 优化技术 -->
        <mxCell id="optimization" value="🚀 优化技术" style="rounded=1;whiteSpace=wrap;html=1;fillColor=#fce4ec;strokeColor=#c2185b;strokeWidth=2;fontSize=16;fontStyle=1;" vertex="1" parent="1">
          <mxGeometry x="100" y="540" width="500" height="50" as="geometry" />
        </mxCell>
        
        <!-- 参数高效微调 -->
        <mxCell id="peft" value="🎛️ 参数高效微调(PEFT)\n• LoRA: 低秩适应\n• AdaLoRA: 自适应LoRA\n• Prefix Tuning: 前缀调优\n• 只训练少量参数\n• 保持预训练知识" style="rounded=1;whiteSpace=wrap;html=1;fillColor=#fff3e0;strokeColor=#f57c00;fontSize=12;align=left;" vertex="1" parent="1">
          <mxGeometry x="50" y="620" width="200" height="120" as="geometry" />
        </mxCell>
        
        <!-- 混合专家模型 -->
        <mxCell id="moe" value="👥 混合专家模型(MoE)\n• Switch Transformer\n• GLaM模型\n• 稀疏激活\n• 动态路由机制\n• 扩展模型容量" style="rounded=1;whiteSpace=wrap;html=1;fillColor=#f3e5f5;strokeColor=#7b1fa2;fontSize=12;align=left;" vertex="1" parent="1">
          <mxGeometry x="300" y="620" width="200" height="120" as="geometry" />
        </mxCell>
        
        <!-- 分布式训练 -->
        <mxCell id="distributed" value="🌐 分布式训练\n• 数据并行\n• 模型并行\n• ZeRO优化器\n• 梯度累积\n• 混合精度训练" style="rounded=1;whiteSpace=wrap;html=1;fillColor=#e8f5e8;strokeColor=#4caf50;fontSize=12;align=left;" vertex="1" parent="1">
          <mxGeometry x="550" y="620" width="200" height="120" as="geometry" />
        </mxCell>
        
        <!-- AI突破方向 -->
        <mxCell id="ai-breakthroughs" value="🚀 AI突破方向" style="rounded=1;whiteSpace=wrap;html=1;fillColor=#fce4ec;strokeColor=#c2185b;strokeWidth=2;fontSize=16;fontStyle=1;" vertex="1" parent="1">
          <mxGeometry x="800" y="540" width="500" height="50" as="geometry" />
        </mxCell>
        
        <!-- 强化学习 -->
        <mxCell id="rl" value="🎮 强化学习\n• RLHF: 人类反馈强化学习\n• PPO: 近端策略优化\n• 在线学习与适应\n• 探索-利用平衡\n• 奖励模型训练" style="rounded=1;whiteSpace=wrap;html=1;fillColor=#fff8e1;strokeColor=#ff8f00;fontSize=12;align=left;" vertex="1" parent="1">
          <mxGeometry x="800" y="620" width="200" height="120" as="geometry" />
        </mxCell>
        
        <!-- 元学习 -->
        <mxCell id="meta" value="🧬 元学习\n• 学会学习的能力\n• Few-shot Learning\n• 快速适应新任务\n• MAML算法\n• 上下文学习" style="rounded=1;whiteSpace=wrap;html=1;fillColor=#f1f8e9;strokeColor=#689f38;fontSize=12;align=left;" vertex="1" parent="1">
          <mxGeometry x="1050" y="620" width="200" height="120" as="geometry" />
        </mxCell>
        
        <!-- 量子计算 -->
        <mxCell id="quantum" value="⚛️ 量子计算\n• 量子优势\n• 量子并行计算\n• 量子机器学习\n• 新算法范式\n• 指数级加速" style="rounded=1;whiteSpace=wrap;html=1;fillColor=#e8eaf6;strokeColor=#3f51b5;fontSize=12;align=left;" vertex="1" parent="1">
          <mxGeometry x="1300" y="620" width="200" height="120" as="geometry" />
        </mxCell>
        
        <!-- 未来展望 -->
        <mxCell id="future" value="🔮 未来展望\n• AGI通用人工智能\n• 多模态融合\n• 神经符号结合\n• 可解释AI\n• 持续学习" style="rounded=1;whiteSpace=wrap;html=1;fillColor=#fce4ec;strokeColor=#c2185b;fontSize=12;align=left;" vertex="1" parent="1">
          <mxGeometry x="550" y="780" width="200" height="120" as="geometry" />
        </mxCell>
        
        <!-- 连接线 -->
        <mxCell id="arrow1" value="" style="endArrow=classic;html=1;rounded=0;exitX=0.2;exitY=1;exitDx=0;exitDy=0;entryX=0.5;entryY=0;entryDx=0;entryDy=0;strokeWidth=2;strokeColor=#1976d2;" edge="1" parent="1" source="transformer-core" target="input-layer">
          <mxGeometry width="50" height="50" relative="1" as="geometry" />
        </mxCell>
        
        <mxCell id="arrow2" value="" style="endArrow=classic;html=1;rounded=0;exitX=0.4;exitY=1;exitDx=0;exitDy=0;entryX=0.5;entryY=0;entryDx=0;entryDy=0;strokeWidth=2;strokeColor=#1976d2;" edge="1" parent="1" source="transformer-core" target="attention">
          <mxGeometry width="50" height="50" relative="1" as="geometry" />
        </mxCell>
        
        <mxCell id="arrow3" value="" style="endArrow=classic;html=1;rounded=0;exitX=0.6;exitY=1;exitDx=0;exitDy=0;entryX=0.5;entryY=0;entryDx=0;entryDy=0;strokeWidth=2;strokeColor=#1976d2;" edge="1" parent="1" source="transformer-core" target="multihead">
          <mxGeometry width="50" height="50" relative="1" as="geometry" />
        </mxCell>
        
        <mxCell id="arrow4" value="" style="endArrow=classic;html=1;rounded=0;exitX=0.8;exitY=1;exitDx=0;exitDy=0;entryX=0.5;entryY=0;entryDx=0;entryDy=0;strokeWidth=2;strokeColor=#1976d2;" edge="1" parent="1" source="transformer-core" target="ffn">
          <mxGeometry width="50" height="50" relative="1" as="geometry" />
        </mxCell>
        
        <mxCell id="arrow5" value="" style="endArrow=classic;html=1;rounded=0;exitX=0.2;exitY=1;exitDx=0;exitDy=0;entryX=0.5;entryY=0;entryDx=0;entryDy=0;strokeWidth=2;strokeColor=#388e3c;" edge="1" parent="1" source="optimization" target="peft">
          <mxGeometry width="50" height="50" relative="1" as="geometry" />
        </mxCell>
        
        <mxCell id="arrow6" value="" style="endArrow=classic;html=1;rounded=0;exitX=0.4;exitY=1;exitDx=0;exitDy=0;entryX=0.5;entryY=0;entryDx=0;entryDy=0;strokeWidth=2;strokeColor=#388e3c;" edge="1" parent="1" source="optimization" target="moe">
          <mxGeometry width="50" height="50" relative="1" as="geometry" />
        </mxCell>
        
        <mxCell id="arrow7" value="" style="endArrow=classic;html=1;rounded=0;exitX=0.6;exitY=1;exitDx=0;exitDy=0;entryX=0.5;entryY=0;entryDx=0;entryDy=0;strokeWidth=2;strokeColor=#388e3c;" edge="1" parent="1" source="optimization" target="distributed">
          <mxGeometry width="50" height="50" relative="1" as="geometry" />
        </mxCell>
        
        <mxCell id="arrow8" value="" style="endArrow=classic;html=1;rounded=0;exitX=0.2;exitY=1;exitDx=0;exitDy=0;entryX=0.5;entryY=0;entryDx=0;entryDy=0;strokeWidth=2;strokeColor=#d32f2f;" edge="1" parent="1" source="ai-breakthroughs" target="rl">
          <mxGeometry width="50" height="50" relative="1" as="geometry" />
        </mxCell>
        
        <mxCell id="arrow9" value="" style="endArrow=classic;html=1;rounded=0;exitX=0.5;exitY=1;exitDx=0;exitDy=0;entryX=0.5;entryY=0;entryDx=0;entryDy=0;strokeWidth=2;strokeColor=#d32f2f;" edge="1" parent="1" source="ai-breakthroughs" target="meta">
          <mxGeometry width="50" height="50" relative="1" as="geometry" />
        </mxCell>
        
        <mxCell id="arrow10" value="" style="endArrow=classic;html=1;rounded=0;exitX=0.8;exitY=1;exitDx=0;exitDy=0;entryX=0.5;entryY=0;entryDx=0;entryDy=0;strokeWidth=2;strokeColor=#d32f2f;" edge="1" parent="1" source="ai-breakthroughs" target="quantum">
          <mxGeometry width="50" height="50" relative="1" as="geometry" />
        </mxCell>
        
        <!-- 数据流箭头 -->
        <mxCell id="flow1" value="数据流" style="endArrow=classic;html=1;rounded=0;exitX=1;exitY=0.5;exitDx=0;exitDy=0;entryX=0;entryY=0.5;entryDx=0;entryDy=0;strokeWidth=3;strokeColor=#ff6b35;dashed=1;" edge="1" parent="1" source="input-layer" target="attention">
          <mxGeometry width="50" height="50" relative="1" as="geometry" />
        </mxCell>
        
        <mxCell id="flow2" value="注意力流" style="endArrow=classic;html=1;rounded=0;exitX=1;exitY=0.5;exitDx=0;exitDy=0;entryX=0;entryY=0.5;entryDx=0;entryDy=0;strokeWidth=3;strokeColor=#ff6b35;dashed=1;" edge="1" parent="1" source="attention" target="multihead">
          <mxGeometry width="50" height="50" relative="1" as="geometry" />
        </mxCell>
        
        <mxCell id="flow3" value="特征流" style="endArrow=classic;html=1;rounded=0;exitX=1;exitY=0.5;exitDx=0;exitDy=0;entryX=0;entryY=0.5;entryDx=0;entryDy=0;strokeWidth=3;strokeColor=#ff6b35;dashed=1;" edge="1" parent="1" source="multihead" target="ffn">
          <mxGeometry width="50" height="50" relative="1" as="geometry" />
        </mxCell>
        
      </root>
    </mxGraphModel>
  </diagram>
</mxfile>